<?xml version="1.0" encoding="UTF-8" standalone="no"?>
<svg
   viewBox="0 0 1000 2000"
   height="200mm"
   version="1.2"
   width="100mm"
   id="svg352"
   sodipodi:docname="Dexcom.G7.Underpatch.svg"
   inkscape:version="1.2.2 (b0a8486541, 2022-12-01)"
   inkscape:export-filename="Dexcom.G7.Underpatch.png"
   inkscape:export-xdpi="96"
   inkscape:export-ydpi="96"
   xmlns:inkscape="http://www.inkscape.org/namespaces/inkscape"
   xmlns:sodipodi="http://sodipodi.sourceforge.net/DTD/sodipodi-0.dtd"
   xmlns="http://www.w3.org/2000/svg"
   xmlns:svg="http://www.w3.org/2000/svg"
   xmlns:rdf="http://www.w3.org/1999/02/22-rdf-syntax-ns#"
   xmlns:cc="http://creativecommons.org/ns#"
   xmlns:dc="http://purl.org/dc/elements/1.1/">
  <sodipodi:namedview
     id="namedview354"
     pagecolor="#ffffff"
     bordercolor="#000000"
     borderopacity="0.25"
     inkscape:showpageshadow="2"
     inkscape:pageopacity="0.0"
     inkscape:pagecheckerboard="0"
     inkscape:deskcolor="#d1d1d1"
     inkscape:document-units="mm"
     showgrid="false"
     inkscape:zoom="0.14867064"
     inkscape:cx="-168.15694"
     inkscape:cy="558.28104"
     inkscape:window-width="960"
     inkscape:window-height="1008"
     inkscape:window-x="960"
     inkscape:window-y="0"
     inkscape:window-maximized="0"
     inkscape:current-layer="layer1" />
  <title
     id="title2">FreeCAD SVG Export</title>
  <desc
     id="desc4">Drawing page: Page exported from FreeCAD document: Dexcom_G7_Cap</desc>
  <defs
     id="defs6" />
  <g
     id="Page"
     inkscape:label="TechDraw"
     inkscape:groupmode="layer">
    <g
       id="g1251-6-5-2"
       transform="rotate(-90,1232.0715,2009.8952)">
      <g
         fill-rule="evenodd"
         stroke-linecap="square"
         fill="none"
         id="DrawingContent-6-3-27"
         stroke-width="1"
         stroke="#000000"
         stroke-linejoin="bevel"
         transform="translate(-2.3593814)">
        <g
           font-family="'MS Shell Dlg 2'"
           stroke-linecap="round"
           font-weight="400"
           fill="none"
           stroke-width="7"
           font-size="19.4028px"
           font-style="normal"
           stroke="#000000"
           stroke-opacity="1"
           stroke-linejoin="bevel"
           transform="matrix(1.1276596,0,0,1.1276596,1488.0036,1061.4384)"
           id="g348-8-3-8"
           style="stroke-width:2.56283;stroke-dasharray:none">
          <path
             fill-rule="evenodd"
             vector-effect="none"
             d="m 19.9704,-66.1015 c 0,11.0457 -8.9543,20 -19.9999741,20 -11.0457259,0 -20.0000259,-8.9543 -20.0000259,-20 0,-11.0457 8.9543,-20 20.0000259,-20 11.0456741,0 19.9999741,8.9543 19.9999741,20"
             id="path346-3-3-4"
             style="stroke-width:2.56283;stroke-dasharray:none" />
        </g>
      </g>
      <path
         id="path635-2-5-7"
         style="fill:none;stroke:#000000;stroke-width:4.75437"
         d="m 1663.2337,1051.7972 a 177.62282,197.62282 0 0 1 -177.6229,197.6229 177.62282,197.62282 0 0 1 -177.6228,-197.6229 177.62282,197.62282 0 0 1 177.6228,-197.62278 177.62282,197.62282 0 0 1 177.6229,197.62278 z" />
    </g>
    <g
       id="g1251-6-5-2-9"
       transform="rotate(-90,1467.163,1803.0517)">
      <g
         fill-rule="evenodd"
         stroke-linecap="square"
         fill="none"
         id="DrawingContent-6-3-27-8"
         stroke-width="1"
         stroke="#000000"
         stroke-linejoin="bevel"
         transform="translate(-2.3593814)">
        <g
           font-family="'MS Shell Dlg 2'"
           stroke-linecap="round"
           font-weight="400"
           fill="none"
           stroke-width="7"
           font-size="19.4028px"
           font-style="normal"
           stroke="#000000"
           stroke-opacity="1"
           stroke-linejoin="bevel"
           transform="matrix(1.1276596,0,0,1.1276596,1488.0036,1061.4384)"
           id="g348-8-3-8-6"
           style="stroke-width:2.56283;stroke-dasharray:none">
          <path
             fill-rule="evenodd"
             vector-effect="none"
             d="m 19.9704,-66.1015 c 0,11.0457 -8.9543,20 -19.9999741,20 -11.0457259,0 -20.0000259,-8.9543 -20.0000259,-20 0,-11.0457 8.9543,-20 20.0000259,-20 11.0456741,0 19.9999741,8.9543 19.9999741,20"
             id="path346-3-3-4-5"
             style="stroke-width:2.56283;stroke-dasharray:none" />
        </g>
      </g>
      <path
         id="path635-2-5-7-0"
         style="fill:none;stroke:#000000;stroke-width:4.75437"
         d="m 1663.2337,1051.7972 a 177.62282,197.62282 0 0 1 -177.6229,197.6229 177.62282,197.62282 0 0 1 -177.6228,-197.6229 177.62282,197.62282 0 0 1 177.6228,-197.62278 177.62282,197.62282 0 0 1 177.6229,197.62278 z" />
    </g>
    <g
       id="g1251-6-5-2-2"
       transform="rotate(-90,1055.3714,1799.9906)">
      <g
         fill-rule="evenodd"
         stroke-linecap="square"
         fill="none"
         id="DrawingContent-6-3-27-86"
         stroke-width="1"
         stroke="#000000"
         stroke-linejoin="bevel"
         transform="translate(-2.3593814)">
        <g
           font-family="'MS Shell Dlg 2'"
           stroke-linecap="round"
           font-weight="400"
           fill="none"
           stroke-width="7"
           font-size="19.4028px"
           font-style="normal"
           stroke="#000000"
           stroke-opacity="1"
           stroke-linejoin="bevel"
           transform="matrix(1.1276596,0,0,1.1276596,1488.0036,1061.4384)"
           id="g348-8-3-8-0"
           style="stroke-width:2.56283;stroke-dasharray:none">
          <path
             fill-rule="evenodd"
             vector-effect="none"
             d="m 19.9704,-66.1015 c 0,11.0457 -8.9543,20 -19.9999741,20 -11.0457259,0 -20.0000259,-8.9543 -20.0000259,-20 0,-11.0457 8.9543,-20 20.0000259,-20 11.0456741,0 19.9999741,8.9543 19.9999741,20"
             id="path346-3-3-4-2"
             style="stroke-width:2.56283;stroke-dasharray:none" />
        </g>
      </g>
      <path
         id="path635-2-5-7-4"
         style="fill:none;stroke:#000000;stroke-width:4.75437"
         d="m 1663.2337,1051.7972 a 177.62282,197.62282 0 0 1 -177.6229,197.6229 177.62282,197.62282 0 0 1 -177.6228,-197.6229 177.62282,197.62282 0 0 1 177.6228,-197.62278 177.62282,197.62282 0 0 1 177.6229,197.62278 z" />
    </g>
    <g
       id="g1251-6-5-2-9-8"
       transform="rotate(-90,1290.4629,1593.1471)">
      <g
         fill-rule="evenodd"
         stroke-linecap="square"
         fill="none"
         id="DrawingContent-6-3-27-8-6"
         stroke-width="1"
         stroke="#000000"
         stroke-linejoin="bevel"
         transform="translate(-2.3593814)">
        <g
           font-family="'MS Shell Dlg 2'"
           stroke-linecap="round"
           font-weight="400"
           fill="none"
           stroke-width="7"
           font-size="19.4028px"
           font-style="normal"
           stroke="#000000"
           stroke-opacity="1"
           stroke-linejoin="bevel"
           transform="matrix(1.1276596,0,0,1.1276596,1488.0036,1061.4384)"
           id="g348-8-3-8-6-5"
           style="stroke-width:2.56283;stroke-dasharray:none">
          <path
             fill-rule="evenodd"
             vector-effect="none"
             d="m 19.9704,-66.1015 c 0,11.0457 -8.9543,20 -19.9999741,20 -11.0457259,0 -20.0000259,-8.9543 -20.0000259,-20 0,-11.0457 8.9543,-20 20.0000259,-20 11.0456741,0 19.9999741,8.9543 19.9999741,20"
             id="path346-3-3-4-5-0"
             style="stroke-width:2.56283;stroke-dasharray:none" />
        </g>
      </g>
      <path
         id="path635-2-5-7-0-9"
         style="fill:none;stroke:#000000;stroke-width:4.75437"
         d="m 1663.2337,1051.7972 a 177.62282,197.62282 0 0 1 -177.6229,197.6229 177.62282,197.62282 0 0 1 -177.6228,-197.6229 177.62282,197.62282 0 0 1 177.6228,-197.62278 177.62282,197.62282 0 0 1 177.6229,197.62278 z" />
    </g>
    <g
       id="g1251-6-5-2-2-0"
       transform="rotate(-90,855.23433,1621.5972)">
      <g
         fill-rule="evenodd"
         stroke-linecap="square"
         fill="none"
         id="DrawingContent-6-3-27-86-0"
         stroke-width="1"
         stroke="#000000"
         stroke-linejoin="bevel"
         transform="translate(-2.3593814)">
        <g
           font-family="'MS Shell Dlg 2'"
           stroke-linecap="round"
           font-weight="400"
           fill="none"
           stroke-width="7"
           font-size="19.4028px"
           font-style="normal"
           stroke="#000000"
           stroke-opacity="1"
           stroke-linejoin="bevel"
           transform="matrix(1.1276596,0,0,1.1276596,1488.0036,1061.4384)"
           id="g348-8-3-8-0-6"
           style="stroke-width:2.56283;stroke-dasharray:none">
          <path
             fill-rule="evenodd"
             vector-effect="none"
             d="m 19.9704,-66.1015 c 0,11.0457 -8.9543,20 -19.9999741,20 -11.0457259,0 -20.0000259,-8.9543 -20.0000259,-20 0,-11.0457 8.9543,-20 20.0000259,-20 11.0456741,0 19.9999741,8.9543 19.9999741,20"
             id="path346-3-3-4-2-1"
             style="stroke-width:2.56283;stroke-dasharray:none" />
        </g>
      </g>
      <path
         id="path635-2-5-7-4-3"
         style="fill:none;stroke:#000000;stroke-width:4.75437"
         d="m 1663.2337,1051.7972 a 177.62282,197.62282 0 0 1 -177.6229,197.6229 177.62282,197.62282 0 0 1 -177.6228,-197.6229 177.62282,197.62282 0 0 1 177.6228,-197.62278 177.62282,197.62282 0 0 1 177.6229,197.62278 z" />
    </g>
    <g
       id="g1251-6-5-2-9-8-8"
       transform="rotate(-90,1090.3258,1414.7537)">
      <g
         fill-rule="evenodd"
         stroke-linecap="square"
         fill="none"
         id="DrawingContent-6-3-27-8-6-9"
         stroke-width="1"
         stroke="#000000"
         stroke-linejoin="bevel"
         transform="translate(-2.3593814)">
        <g
           font-family="'MS Shell Dlg 2'"
           stroke-linecap="round"
           font-weight="400"
           fill="none"
           stroke-width="7"
           font-size="19.4028px"
           font-style="normal"
           stroke="#000000"
           stroke-opacity="1"
           stroke-linejoin="bevel"
           transform="matrix(1.1276596,0,0,1.1276596,1488.0036,1061.4384)"
           id="g348-8-3-8-6-5-3"
           style="stroke-width:2.56283;stroke-dasharray:none">
          <path
             fill-rule="evenodd"
             vector-effect="none"
             d="m 19.9704,-66.1015 c 0,11.0457 -8.9543,20 -19.9999741,20 -11.0457259,0 -20.0000259,-8.9543 -20.0000259,-20 0,-11.0457 8.9543,-20 20.0000259,-20 11.0456741,0 19.9999741,8.9543 19.9999741,20"
             id="path346-3-3-4-5-0-4"
             style="stroke-width:2.56283;stroke-dasharray:none" />
        </g>
      </g>
      <path
         id="path635-2-5-7-0-9-4"
         style="fill:none;stroke:#000000;stroke-width:4.75437"
         d="m 1663.2337,1051.7972 a 177.62282,197.62282 0 0 1 -177.6229,197.6229 177.62282,197.62282 0 0 1 -177.6228,-197.6229 177.62282,197.62282 0 0 1 177.6228,-197.62278 177.62282,197.62282 0 0 1 177.6229,197.62278 z" />
    </g>
    <g
       id="g1251-6-5-2-2-6"
       transform="rotate(-90,666.34575,1419.3902)">
      <g
         fill-rule="evenodd"
         stroke-linecap="square"
         fill="none"
         id="DrawingContent-6-3-27-86-06"
         stroke-width="1"
         stroke="#000000"
         stroke-linejoin="bevel"
         transform="translate(-2.3593814)">
        <g
           font-family="'MS Shell Dlg 2'"
           stroke-linecap="round"
           font-weight="400"
           fill="none"
           stroke-width="7"
           font-size="19.4028px"
           font-style="normal"
           stroke="#000000"
           stroke-opacity="1"
           stroke-linejoin="bevel"
           transform="matrix(1.1276596,0,0,1.1276596,1488.0036,1061.4384)"
           id="g348-8-3-8-0-61"
           style="stroke-width:2.56283;stroke-dasharray:none">
          <path
             fill-rule="evenodd"
             vector-effect="none"
             d="m 19.9704,-66.1015 c 0,11.0457 -8.9543,20 -19.9999741,20 -11.0457259,0 -20.0000259,-8.9543 -20.0000259,-20 0,-11.0457 8.9543,-20 20.0000259,-20 11.0456741,0 19.9999741,8.9543 19.9999741,20"
             id="path346-3-3-4-2-8"
             style="stroke-width:2.56283;stroke-dasharray:none" />
        </g>
      </g>
      <path
         id="path635-2-5-7-4-4"
         style="fill:none;stroke:#000000;stroke-width:4.75437"
         d="m 1663.2337,1051.7972 a 177.62282,197.62282 0 0 1 -177.6229,197.6229 177.62282,197.62282 0 0 1 -177.6228,-197.6229 177.62282,197.62282 0 0 1 177.6228,-197.62278 177.62282,197.62282 0 0 1 177.6229,197.62278 z" />
    </g>
    <g
       id="g1251-6-5-2-9-8-9"
       transform="rotate(-90,901.43725,1212.5467)">
      <g
         fill-rule="evenodd"
         stroke-linecap="square"
         fill="none"
         id="DrawingContent-6-3-27-8-6-6"
         stroke-width="1"
         stroke="#000000"
         stroke-linejoin="bevel"
         transform="translate(-2.3593814)">
        <g
           font-family="'MS Shell Dlg 2'"
           stroke-linecap="round"
           font-weight="400"
           fill="none"
           stroke-width="7"
           font-size="19.4028px"
           font-style="normal"
           stroke="#000000"
           stroke-opacity="1"
           stroke-linejoin="bevel"
           transform="matrix(1.1276596,0,0,1.1276596,1488.0036,1061.4384)"
           id="g348-8-3-8-6-5-37"
           style="stroke-width:2.56283;stroke-dasharray:none">
          <path
             fill-rule="evenodd"
             vector-effect="none"
             d="m 19.9704,-66.1015 c 0,11.0457 -8.9543,20 -19.9999741,20 -11.0457259,0 -20.0000259,-8.9543 -20.0000259,-20 0,-11.0457 8.9543,-20 20.0000259,-20 11.0456741,0 19.9999741,8.9543 19.9999741,20"
             id="path346-3-3-4-5-0-8"
             style="stroke-width:2.56283;stroke-dasharray:none" />
        </g>
      </g>
      <path
         id="path635-2-5-7-0-9-8"
         style="fill:none;stroke:#000000;stroke-width:4.75437"
         d="m 1663.2337,1051.7972 a 177.62282,197.62282 0 0 1 -177.6229,197.6229 177.62282,197.62282 0 0 1 -177.6228,-197.6229 177.62282,197.62282 0 0 1 177.6228,-197.62278 177.62282,197.62282 0 0 1 177.6229,197.62278 z" />
    </g>
    <g
       id="g1251-6-5-2-2-6-2"
       transform="rotate(-90,467.81166,1225.6311)">
      <g
         fill-rule="evenodd"
         stroke-linecap="square"
         fill="none"
         id="DrawingContent-6-3-27-86-06-9"
         stroke-width="1"
         stroke="#000000"
         stroke-linejoin="bevel"
         transform="translate(-2.3593814)">
        <g
           font-family="'MS Shell Dlg 2'"
           stroke-linecap="round"
           font-weight="400"
           fill="none"
           stroke-width="7"
           font-size="19.4028px"
           font-style="normal"
           stroke="#000000"
           stroke-opacity="1"
           stroke-linejoin="bevel"
           transform="matrix(1.1276596,0,0,1.1276596,1488.0036,1061.4384)"
           id="g348-8-3-8-0-61-1"
           style="stroke-width:2.56283;stroke-dasharray:none">
          <path
             fill-rule="evenodd"
             vector-effect="none"
             d="m 19.9704,-66.1015 c 0,11.0457 -8.9543,20 -19.9999741,20 -11.0457259,0 -20.0000259,-8.9543 -20.0000259,-20 0,-11.0457 8.9543,-20 20.0000259,-20 11.0456741,0 19.9999741,8.9543 19.9999741,20"
             id="path346-3-3-4-2-8-3"
             style="stroke-width:2.56283;stroke-dasharray:none" />
        </g>
      </g>
      <path
         id="path635-2-5-7-4-4-5"
         style="fill:none;stroke:#000000;stroke-width:4.75437"
         d="m 1663.2337,1051.7972 a 177.62282,197.62282 0 0 1 -177.6229,197.6229 177.62282,197.62282 0 0 1 -177.6228,-197.6229 177.62282,197.62282 0 0 1 177.6228,-197.62278 177.62282,197.62282 0 0 1 177.6229,197.62278 z" />
    </g>
    <g
       id="g1251-6-5-2-9-8-9-9"
       transform="rotate(-90,702.90316,1018.7876)">
      <g
         fill-rule="evenodd"
         stroke-linecap="square"
         fill="none"
         id="DrawingContent-6-3-27-8-6-6-8"
         stroke-width="1"
         stroke="#000000"
         stroke-linejoin="bevel"
         transform="translate(-2.3593814)">
        <g
           font-family="'MS Shell Dlg 2'"
           stroke-linecap="round"
           font-weight="400"
           fill="none"
           stroke-width="7"
           font-size="19.4028px"
           font-style="normal"
           stroke="#000000"
           stroke-opacity="1"
           stroke-linejoin="bevel"
           transform="matrix(1.1276596,0,0,1.1276596,1488.0036,1061.4384)"
           id="g348-8-3-8-6-5-37-4"
           style="stroke-width:2.56283;stroke-dasharray:none">
          <path
             fill-rule="evenodd"
             vector-effect="none"
             d="m 19.9704,-66.1015 c 0,11.0457 -8.9543,20 -19.9999741,20 -11.0457259,0 -20.0000259,-8.9543 -20.0000259,-20 0,-11.0457 8.9543,-20 20.0000259,-20 11.0456741,0 19.9999741,8.9543 19.9999741,20"
             id="path346-3-3-4-5-0-8-0"
             style="stroke-width:2.56283;stroke-dasharray:none" />
        </g>
      </g>
      <path
         id="path635-2-5-7-0-9-8-7"
         style="fill:none;stroke:#000000;stroke-width:4.75437"
         d="m 1663.2337,1051.7972 a 177.62282,197.62282 0 0 1 -177.6229,197.6229 177.62282,197.62282 0 0 1 -177.6228,-197.6229 177.62282,197.62282 0 0 1 177.6228,-197.62278 177.62282,197.62282 0 0 1 177.6229,197.62278 z" />
    </g>
  </g>
  <g
     inkscape:groupmode="layer"
     id="layer1"
     inkscape:label="text" />
  <metadata
     id="metadata1245">
    <rdf:RDF>
      <cc:Work
         rdf:about="">
        <dc:title>FreeCAD SVG Export</dc:title>
      </cc:Work>
    </rdf:RDF>
  </metadata>
</svg>
