<?xml version="1.0" encoding="UTF-8" standalone="no"?>
<svg
   version="1.2"
   viewBox="0 0 2000 2000"
   height="200mm"
   width="200mm"
   id="svg352"
   sodipodi:docname="Dexcom.G7.Overpatch_White.svg"
   inkscape:version="1.2.2 (b0a8486541, 2022-12-01)"
   inkscape:export-filename="Dexcom.G7.Overpatch.png"
   inkscape:export-xdpi="96"
   inkscape:export-ydpi="96"
   xmlns:inkscape="http://www.inkscape.org/namespaces/inkscape"
   xmlns:sodipodi="http://sodipodi.sourceforge.net/DTD/sodipodi-0.dtd"
   xmlns="http://www.w3.org/2000/svg"
   xmlns:svg="http://www.w3.org/2000/svg"
   xmlns:rdf="http://www.w3.org/1999/02/22-rdf-syntax-ns#"
   xmlns:cc="http://creativecommons.org/ns#"
   xmlns:dc="http://purl.org/dc/elements/1.1/">
  <sodipodi:namedview
     id="namedview354"
     pagecolor="#ffffff"
     bordercolor="#000000"
     borderopacity="0.25"
     inkscape:showpageshadow="2"
     inkscape:pageopacity="0.0"
     inkscape:pagecheckerboard="0"
     inkscape:deskcolor="#d1d1d1"
     inkscape:document-units="mm"
     showgrid="false"
     inkscape:zoom="0.29734127"
     inkscape:cx="558.28106"
     inkscape:cy="760.0694"
     inkscape:window-width="1920"
     inkscape:window-height="1008"
     inkscape:window-x="0"
     inkscape:window-y="0"
     inkscape:window-maximized="1"
     inkscape:current-layer="Page" />
  <title
     id="title2">FreeCAD SVG Export</title>
  <desc
     id="desc4">Drawing page: Page exported from FreeCAD document: Dexcom_G7_Cap</desc>
  <defs
     id="defs6">
    <rect
       x="769.79467"
       y="919.49499"
       width="187.97902"
       height="54.024319"
       id="rect429" />
    <rect
       x="-436.83591"
       y="1589.3015"
       width="26.441407"
       height="26.05509"
       id="rect423" />
    <rect
       x="1911.9911"
       y="970.2641"
       width="1227.0988"
       height="2168.8257"
       id="rect3" />
  </defs>
  <g
     inkscape:label="TechDraw"
     inkscape:groupmode="layer"
     id="Page">
    <text
       xml:space="preserve"
       transform="scale(2.6458333)"
       id="text3"
       style="font-style:italic;font-size:69.3333px;font-family:Arial;-inkscape-font-specification:'Arial Italic';white-space:pre;shape-inside:url(#rect3);display:inline;fill:none;fill-rule:evenodd;stroke:#000000;stroke-width:2.26772;stroke-linecap:square;stroke-linejoin:bevel" />
    <g
       id="g1026-3-5-6-8"
       transform="translate(-231.48189,1182.5654)">
      <path
         id="path342-2-1-2-4-4-6-3-2-7"
         d="m 608.63155,388.05269 c 5.787,10.3446 10.103,21.4456 12.823,32.9823 m 0,0 c 2.262,9.59068 3.404,19.41126 3.404,29.2651 m 0,0 c 0,49.0865 -28.1787,93.8145 -72.4551,115.0055 -44.2764,21.192 -96.7865,15.084 -135.0167,-15.705 -38.2302,-30.7882 -55.3902,-80.7896 -44.1242,-128.5656 m 0,0 c 2.988,-12.6673 7.897,-24.8025 14.557,-35.9839 m 0,0 1.113,-2.751 m 0,0 c 12.8813,-46.5555 54.044,-79.6905 102.27586,-82.3315 48.23194,-2.641 92.76624,25.803 110.65314,70.6728 m 0,0 c 0.237,0.5931 0.468,1.1881 0.694,1.7851 m 6.076,15.6262 -6.076,-15.6262"
         sodipodi:nodetypes="cccccccccccccsccccc"
         style="display:inline;fill:none;fill-rule:evenodd;stroke:#000000;stroke-width:1;stroke-linecap:square;stroke-linejoin:bevel" />
      <ellipse
         style="fill:none;stroke:#000000;stroke-width:2.64583;stroke-opacity:1"
         id="path249-7-5-9-9"
         cx="497.35648"
         cy="438.79993"
         rx="231.7695"
         ry="278.37665" />
    </g>
    <g
       id="g1026-3-5-6-8-3"
       transform="translate(268.52591,1182.5654)">
      <path
         id="path342-2-1-2-4-4-6-3-2-7-6"
         d="m 608.63155,388.05269 c 5.787,10.3446 10.103,21.4456 12.823,32.9823 m 0,0 c 2.262,9.59068 3.404,19.41126 3.404,29.2651 m 0,0 c 0,49.0865 -28.1787,93.8145 -72.4551,115.0055 -44.2764,21.192 -96.7865,15.084 -135.0167,-15.705 -38.2302,-30.7882 -55.3902,-80.7896 -44.1242,-128.5656 m 0,0 c 2.988,-12.6673 7.897,-24.8025 14.557,-35.9839 m 0,0 1.113,-2.751 m 0,0 c 12.8813,-46.5555 54.044,-79.6905 102.27586,-82.3315 48.23194,-2.641 92.76624,25.803 110.65314,70.6728 m 0,0 c 0.237,0.5931 0.468,1.1881 0.694,1.7851 m 6.076,15.6262 -6.076,-15.6262"
         sodipodi:nodetypes="cccccccccccccsccccc"
         style="display:inline;fill:none;fill-rule:evenodd;stroke:#000000;stroke-width:1;stroke-linecap:square;stroke-linejoin:bevel" />
      <ellipse
         style="fill:none;stroke:#000000;stroke-width:2.64583;stroke-opacity:1"
         id="path249-7-5-9-9-7"
         cx="497.35648"
         cy="438.79993"
         rx="231.7695"
         ry="278.37665" />
    </g>
    <g
       id="g1026-3-5-6-8-3-5"
       transform="translate(753.61869,1182.5654)">
      <path
         id="path342-2-1-2-4-4-6-3-2-7-6-3"
         d="m 608.63155,388.05269 c 5.787,10.3446 10.103,21.4456 12.823,32.9823 m 0,0 c 2.262,9.59068 3.404,19.41126 3.404,29.2651 m 0,0 c 0,49.0865 -28.1787,93.8145 -72.4551,115.0055 -44.2764,21.192 -96.7865,15.084 -135.0167,-15.705 -38.2302,-30.7882 -55.3902,-80.7896 -44.1242,-128.5656 m 0,0 c 2.988,-12.6673 7.897,-24.8025 14.557,-35.9839 m 0,0 1.113,-2.751 m 0,0 c 12.8813,-46.5555 54.044,-79.6905 102.27586,-82.3315 48.23194,-2.641 92.76624,25.803 110.65314,70.6728 m 0,0 c 0.237,0.5931 0.468,1.1881 0.694,1.7851 m 6.076,15.6262 -6.076,-15.6262"
         sodipodi:nodetypes="cccccccccccccsccccc"
         style="display:inline;fill:none;fill-rule:evenodd;stroke:#000000;stroke-width:1;stroke-linecap:square;stroke-linejoin:bevel" />
      <ellipse
         style="fill:none;stroke:#000000;stroke-width:2.64583;stroke-opacity:1"
         id="path249-7-5-9-9-7-5"
         cx="497.35648"
         cy="438.79993"
         rx="231.7695"
         ry="278.37665" />
    </g>
    <g
       id="g1026-3-5-6-8-3-5-6"
       transform="translate(1238.7113,1182.5654)">
      <path
         id="path342-2-1-2-4-4-6-3-2-7-6-3-2"
         d="m 608.63155,388.05269 c 5.787,10.3446 10.103,21.4456 12.823,32.9823 m 0,0 c 2.262,9.59068 3.404,19.41126 3.404,29.2651 m 0,0 c 0,49.0865 -28.1787,93.8145 -72.4551,115.0055 -44.2764,21.192 -96.7865,15.084 -135.0167,-15.705 -38.2302,-30.7882 -55.3902,-80.7896 -44.1242,-128.5656 m 0,0 c 2.988,-12.6673 7.897,-24.8025 14.557,-35.9839 m 0,0 1.113,-2.751 m 0,0 c 12.8813,-46.5555 54.044,-79.6905 102.27586,-82.3315 48.23194,-2.641 92.76624,25.803 110.65314,70.6728 m 0,0 c 0.237,0.5931 0.468,1.1881 0.694,1.7851 m 6.076,15.6262 -6.076,-15.6262"
         sodipodi:nodetypes="cccccccccccccsccccc"
         style="display:inline;fill:none;fill-rule:evenodd;stroke:#000000;stroke-width:1;stroke-linecap:square;stroke-linejoin:bevel" />
      <ellipse
         style="fill:none;stroke:#000000;stroke-width:2.64583;stroke-opacity:1"
         id="path249-7-5-9-9-7-5-9"
         cx="497.35648"
         cy="438.79993"
         rx="231.7695"
         ry="278.37665" />
    </g>
    <g
       id="g1026-3-5-6-8-36"
       transform="translate(-231.48189,593.16251)">
      <path
         id="path342-2-1-2-4-4-6-3-2-7-7"
         d="m 608.63155,388.05269 c 5.787,10.3446 10.103,21.4456 12.823,32.9823 m 0,0 c 2.262,9.59068 3.404,19.41126 3.404,29.2651 m 0,0 c 0,49.0865 -28.1787,93.8145 -72.4551,115.0055 -44.2764,21.192 -96.7865,15.084 -135.0167,-15.705 -38.2302,-30.7882 -55.3902,-80.7896 -44.1242,-128.5656 m 0,0 c 2.988,-12.6673 7.897,-24.8025 14.557,-35.9839 m 0,0 1.113,-2.751 m 0,0 c 12.8813,-46.5555 54.044,-79.6905 102.27586,-82.3315 48.23194,-2.641 92.76624,25.803 110.65314,70.6728 m 0,0 c 0.237,0.5931 0.468,1.1881 0.694,1.7851 m 6.076,15.6262 -6.076,-15.6262"
         sodipodi:nodetypes="cccccccccccccsccccc"
         style="display:inline;fill:none;fill-rule:evenodd;stroke:#000000;stroke-width:1;stroke-linecap:square;stroke-linejoin:bevel" />
      <ellipse
         style="fill:none;stroke:#000000;stroke-width:2.64583;stroke-opacity:1"
         id="path249-7-5-9-9-5"
         cx="497.35648"
         cy="438.79993"
         rx="231.7695"
         ry="278.37665" />
    </g>
    <g
       id="g1026-3-5-6-8-3-3"
       transform="translate(268.52591,593.16251)">
      <path
         id="path342-2-1-2-4-4-6-3-2-7-6-5"
         d="m 608.63155,388.05269 c 5.787,10.3446 10.103,21.4456 12.823,32.9823 m 0,0 c 2.262,9.59068 3.404,19.41126 3.404,29.2651 m 0,0 c 0,49.0865 -28.1787,93.8145 -72.4551,115.0055 -44.2764,21.192 -96.7865,15.084 -135.0167,-15.705 -38.2302,-30.7882 -55.3902,-80.7896 -44.1242,-128.5656 m 0,0 c 2.988,-12.6673 7.897,-24.8025 14.557,-35.9839 m 0,0 1.113,-2.751 m 0,0 c 12.8813,-46.5555 54.044,-79.6905 102.27586,-82.3315 48.23194,-2.641 92.76624,25.803 110.65314,70.6728 m 0,0 c 0.237,0.5931 0.468,1.1881 0.694,1.7851 m 6.076,15.6262 -6.076,-15.6262"
         sodipodi:nodetypes="cccccccccccccsccccc"
         style="display:inline;fill:none;fill-rule:evenodd;stroke:#000000;stroke-width:1;stroke-linecap:square;stroke-linejoin:bevel" />
      <ellipse
         style="fill:none;stroke:#000000;stroke-width:2.64583;stroke-opacity:1"
         id="path249-7-5-9-9-7-6"
         cx="497.35648"
         cy="438.79993"
         rx="231.7695"
         ry="278.37665" />
    </g>
    <g
       id="g1026-3-5-6-8-3-5-2"
       transform="translate(753.61869,593.16251)">
      <path
         id="path342-2-1-2-4-4-6-3-2-7-6-3-9"
         d="m 608.63155,388.05269 c 5.787,10.3446 10.103,21.4456 12.823,32.9823 m 0,0 c 2.262,9.59068 3.404,19.41126 3.404,29.2651 m 0,0 c 0,49.0865 -28.1787,93.8145 -72.4551,115.0055 -44.2764,21.192 -96.7865,15.084 -135.0167,-15.705 -38.2302,-30.7882 -55.3902,-80.7896 -44.1242,-128.5656 m 0,0 c 2.988,-12.6673 7.897,-24.8025 14.557,-35.9839 m 0,0 1.113,-2.751 m 0,0 c 12.8813,-46.5555 54.044,-79.6905 102.27586,-82.3315 48.23194,-2.641 92.76624,25.803 110.65314,70.6728 m 0,0 c 0.237,0.5931 0.468,1.1881 0.694,1.7851 m 6.076,15.6262 -6.076,-15.6262"
         sodipodi:nodetypes="cccccccccccccsccccc"
         style="display:inline;fill:none;fill-rule:evenodd;stroke:#000000;stroke-width:1;stroke-linecap:square;stroke-linejoin:bevel" />
      <ellipse
         style="fill:none;stroke:#000000;stroke-width:2.64583;stroke-opacity:1"
         id="path249-7-5-9-9-7-5-1"
         cx="497.35648"
         cy="438.79993"
         rx="231.7695"
         ry="278.37665" />
    </g>
    <g
       id="g1026-3-5-6-8-3-5-6-2"
       transform="translate(1238.7113,593.16251)">
      <path
         id="path342-2-1-2-4-4-6-3-2-7-6-3-2-7"
         d="m 608.63155,388.05269 c 5.787,10.3446 10.103,21.4456 12.823,32.9823 m 0,0 c 2.262,9.59068 3.404,19.41126 3.404,29.2651 m 0,0 c 0,49.0865 -28.1787,93.8145 -72.4551,115.0055 -44.2764,21.192 -96.7865,15.084 -135.0167,-15.705 -38.2302,-30.7882 -55.3902,-80.7896 -44.1242,-128.5656 m 0,0 c 2.988,-12.6673 7.897,-24.8025 14.557,-35.9839 m 0,0 1.113,-2.751 m 0,0 c 12.8813,-46.5555 54.044,-79.6905 102.27586,-82.3315 48.23194,-2.641 92.76624,25.803 110.65314,70.6728 m 0,0 c 0.237,0.5931 0.468,1.1881 0.694,1.7851 m 6.076,15.6262 -6.076,-15.6262"
         sodipodi:nodetypes="cccccccccccccsccccc"
         style="display:inline;fill:none;fill-rule:evenodd;stroke:#000000;stroke-width:1;stroke-linecap:square;stroke-linejoin:bevel" />
      <ellipse
         style="fill:none;stroke:#000000;stroke-width:2.64583;stroke-opacity:1"
         id="path249-7-5-9-9-7-5-9-0"
         cx="497.35648"
         cy="438.79993"
         rx="231.7695"
         ry="278.37665" />
    </g>
    <g
       id="g1026-3-5-6-8-36-9"
       transform="translate(-231.48189,3.7592968)">
      <path
         id="path342-2-1-2-4-4-6-3-2-7-7-3"
         d="m 608.63155,388.05269 c 5.787,10.3446 10.103,21.4456 12.823,32.9823 m 0,0 c 2.262,9.59068 3.404,19.41126 3.404,29.2651 m 0,0 c 0,49.0865 -28.1787,93.8145 -72.4551,115.0055 -44.2764,21.192 -96.7865,15.084 -135.0167,-15.705 -38.2302,-30.7882 -55.3902,-80.7896 -44.1242,-128.5656 m 0,0 c 2.988,-12.6673 7.897,-24.8025 14.557,-35.9839 m 0,0 1.113,-2.751 m 0,0 c 12.8813,-46.5555 54.044,-79.6905 102.27586,-82.3315 48.23194,-2.641 92.76624,25.803 110.65314,70.6728 m 0,0 c 0.237,0.5931 0.468,1.1881 0.694,1.7851 m 6.076,15.6262 -6.076,-15.6262"
         sodipodi:nodetypes="cccccccccccccsccccc"
         style="display:inline;fill:none;fill-rule:evenodd;stroke:#000000;stroke-width:1;stroke-linecap:square;stroke-linejoin:bevel" />
      <ellipse
         style="fill:none;stroke:#000000;stroke-width:2.64583;stroke-opacity:1"
         id="path249-7-5-9-9-5-6"
         cx="497.35648"
         cy="438.79993"
         rx="231.7695"
         ry="278.37665" />
    </g>
    <g
       id="g1026-3-5-6-8-3-3-0"
       transform="translate(268.52591,3.7592968)">
      <path
         id="path342-2-1-2-4-4-6-3-2-7-6-5-6"
         d="m 608.63155,388.05269 c 5.787,10.3446 10.103,21.4456 12.823,32.9823 m 0,0 c 2.262,9.59068 3.404,19.41126 3.404,29.2651 m 0,0 c 0,49.0865 -28.1787,93.8145 -72.4551,115.0055 -44.2764,21.192 -96.7865,15.084 -135.0167,-15.705 -38.2302,-30.7882 -55.3902,-80.7896 -44.1242,-128.5656 m 0,0 c 2.988,-12.6673 7.897,-24.8025 14.557,-35.9839 m 0,0 1.113,-2.751 m 0,0 c 12.8813,-46.5555 54.044,-79.6905 102.27586,-82.3315 48.23194,-2.641 92.76624,25.803 110.65314,70.6728 m 0,0 c 0.237,0.5931 0.468,1.1881 0.694,1.7851 m 6.076,15.6262 -6.076,-15.6262"
         sodipodi:nodetypes="cccccccccccccsccccc"
         style="display:inline;fill:none;fill-rule:evenodd;stroke:#000000;stroke-width:1;stroke-linecap:square;stroke-linejoin:bevel" />
      <ellipse
         style="fill:none;stroke:#000000;stroke-width:2.64583;stroke-opacity:1"
         id="path249-7-5-9-9-7-6-2"
         cx="497.35648"
         cy="438.79993"
         rx="231.7695"
         ry="278.37665" />
    </g>
    <g
       id="g1026-3-5-6-8-3-5-2-6"
       transform="translate(753.61869,3.7592968)">
      <path
         id="path342-2-1-2-4-4-6-3-2-7-6-3-9-1"
         d="m 608.63155,388.05269 c 5.787,10.3446 10.103,21.4456 12.823,32.9823 m 0,0 c 2.262,9.59068 3.404,19.41126 3.404,29.2651 m 0,0 c 0,49.0865 -28.1787,93.8145 -72.4551,115.0055 -44.2764,21.192 -96.7865,15.084 -135.0167,-15.705 -38.2302,-30.7882 -55.3902,-80.7896 -44.1242,-128.5656 m 0,0 c 2.988,-12.6673 7.897,-24.8025 14.557,-35.9839 m 0,0 1.113,-2.751 m 0,0 c 12.8813,-46.5555 54.044,-79.6905 102.27586,-82.3315 48.23194,-2.641 92.76624,25.803 110.65314,70.6728 m 0,0 c 0.237,0.5931 0.468,1.1881 0.694,1.7851 m 6.076,15.6262 -6.076,-15.6262"
         sodipodi:nodetypes="cccccccccccccsccccc"
         style="display:inline;fill:none;fill-rule:evenodd;stroke:#000000;stroke-width:1;stroke-linecap:square;stroke-linejoin:bevel" />
      <ellipse
         style="fill:none;stroke:#000000;stroke-width:2.64583;stroke-opacity:1"
         id="path249-7-5-9-9-7-5-1-8"
         cx="497.35648"
         cy="438.79993"
         rx="231.7695"
         ry="278.37665" />
    </g>
    <g
       id="g1026-3-5-6-8-3-5-6-2-7"
       transform="translate(1238.7113,3.7592968)">
      <path
         id="path342-2-1-2-4-4-6-3-2-7-6-3-2-7-9"
         d="m 608.63155,388.05269 c 5.787,10.3446 10.103,21.4456 12.823,32.9823 m 0,0 c 2.262,9.59068 3.404,19.41126 3.404,29.2651 m 0,0 c 0,49.0865 -28.1787,93.8145 -72.4551,115.0055 -44.2764,21.192 -96.7865,15.084 -135.0167,-15.705 -38.2302,-30.7882 -55.3902,-80.7896 -44.1242,-128.5656 m 0,0 c 2.988,-12.6673 7.897,-24.8025 14.557,-35.9839 m 0,0 1.113,-2.751 m 0,0 c 12.8813,-46.5555 54.044,-79.6905 102.27586,-82.3315 48.23194,-2.641 92.76624,25.803 110.65314,70.6728 m 0,0 c 0.237,0.5931 0.468,1.1881 0.694,1.7851 m 6.076,15.6262 -6.076,-15.6262"
         sodipodi:nodetypes="cccccccccccccsccccc"
         style="display:inline;fill:none;fill-rule:evenodd;stroke:#000000;stroke-width:1;stroke-linecap:square;stroke-linejoin:bevel" />
      <ellipse
         style="fill:none;stroke:#000000;stroke-width:2.64583;stroke-opacity:1"
         id="path249-7-5-9-9-7-5-9-0-2"
         cx="497.35648"
         cy="438.79993"
         rx="231.7695"
         ry="278.37665" />
    </g>
    <text
       xml:space="preserve"
       transform="scale(2.6458333)"
       id="text421"
       style="white-space:pre;shape-inside:url(#rect423);display:inline;fill:#800080" />
    <text
       xml:space="preserve"
       transform="scale(2.6458333)"
       id="text427"
       style="white-space:pre;shape-inside:url(#rect429);display:inline;fill:#800080" />
  </g>
  <metadata
     id="metadata1458">
    <rdf:RDF>
      <cc:Work
         rdf:about="">
        <dc:title>FreeCAD SVG Export</dc:title>
      </cc:Work>
    </rdf:RDF>
  </metadata>
</svg>
