<?xml version="1.0" encoding="UTF-8" standalone="no"?>
<svg
   version="1.2"
   viewBox="0 0 1000 3000"
   height="300mm"
   width="100mm"
   id="svg352"
   sodipodi:docname="Freestyle_Libre_3_Overpatch_Tegaderm.svg"
   inkscape:version="1.2.2 (b0a8486541, 2022-12-01)"
   inkscape:export-filename="../images/Freestyle_Libre_3_Overpatch_Tegaderm.png"
   inkscape:export-xdpi="96"
   inkscape:export-ydpi="96"
   xmlns:inkscape="http://www.inkscape.org/namespaces/inkscape"
   xmlns:sodipodi="http://sodipodi.sourceforge.net/DTD/sodipodi-0.dtd"
   xmlns="http://www.w3.org/2000/svg"
   xmlns:svg="http://www.w3.org/2000/svg"
   xmlns:rdf="http://www.w3.org/1999/02/22-rdf-syntax-ns#"
   xmlns:cc="http://creativecommons.org/ns#"
   xmlns:dc="http://purl.org/dc/elements/1.1/">
  <sodipodi:namedview
     id="namedview354"
     pagecolor="#ffffff"
     bordercolor="#000000"
     borderopacity="0.25"
     inkscape:showpageshadow="2"
     inkscape:pageopacity="0.0"
     inkscape:pagecheckerboard="0"
     inkscape:deskcolor="#d1d1d1"
     inkscape:document-units="mm"
     showgrid="false"
     inkscape:zoom="0.59468252"
     inkscape:cx="-33.631391"
     inkscape:cy="553.23638"
     inkscape:window-width="1920"
     inkscape:window-height="999"
     inkscape:window-x="0"
     inkscape:window-y="0"
     inkscape:window-maximized="1"
     inkscape:current-layer="DrawingContent" />
  <title
     id="title2">FreeCAD SVG Export</title>
  <desc
     id="desc4">Drawing page: Page exported from FreeCAD document: Dexcom_G7_Cap</desc>
  <defs
     id="defs6">
    <rect
       x="1911.9911"
       y="970.2641"
       width="1227.0988"
       height="2168.8257"
       id="rect3" />
  </defs>
  <g
     inkscape:label="TechDraw"
     inkscape:groupmode="layer"
     id="Page">
    <g
       stroke-width="1"
       fill-rule="evenodd"
       fill="none"
       stroke-linecap="square"
       stroke="#000000"
       stroke-linejoin="bevel"
       id="DrawingContent">
      <text
         xml:space="preserve"
         transform="scale(2.6458333)"
         id="text3"
         style="font-style:italic;font-size:69.3333px;font-family:Arial;-inkscape-font-specification:'Arial Italic';white-space:pre;shape-inside:url(#rect3);display:inline;fill:none;stroke:#000000;stroke-width:2.26772" />
      <g
         id="g994"
         transform="translate(-8.7335575,10.583333)">
        <path
           id="rect1421"
           style="display:inline;stroke-width:7.69335"
           d="m 174.31601,2493.4853 h 651.36798 c 37.67815,0 68.01111,81.4921 68.01111,182.7177 v 65.6906 c 0,101.2256 -30.33296,182.7176 -68.01111,182.7176 H 174.31601 c -37.67816,0 -68.01111,-81.492 -68.01111,-182.7176 v -65.6906 c 0,-101.2256 30.33295,-182.7177 68.01111,-182.7177 z" />
        <circle
           style="fill:none;stroke:#000000;stroke-width:2.8717"
           id="path384"
           cx="500"
           cy="2709.0483"
           r="103.56415" />
      </g>
      <g
         id="g994-3"
         transform="translate(-8.7335575,-476.81376)">
        <path
           id="rect1421-6"
           style="display:inline;stroke-width:7.69335"
           d="m 174.31601,2493.4853 h 651.36798 c 37.67815,0 68.01111,81.4921 68.01111,182.7177 v 65.6906 c 0,101.2256 -30.33296,182.7176 -68.01111,182.7176 H 174.31601 c -37.67816,0 -68.01111,-81.492 -68.01111,-182.7176 v -65.6906 c 0,-101.2256 30.33295,-182.7177 68.01111,-182.7177 z" />
        <circle
           style="fill:none;stroke:#000000;stroke-width:2.8717"
           id="path384-7"
           cx="500"
           cy="2709.0483"
           r="103.56415" />
      </g>
      <g
         id="g994-3-5"
         transform="translate(-8.7335575,-963.18029)">
        <path
           id="rect1421-6-3"
           style="display:inline;stroke-width:7.69335"
           d="m 174.31601,2493.4853 h 651.36798 c 37.67815,0 68.01111,81.4921 68.01111,182.7177 v 65.6906 c 0,101.2256 -30.33296,182.7176 -68.01111,182.7176 H 174.31601 c -37.67816,0 -68.01111,-81.492 -68.01111,-182.7176 v -65.6906 c 0,-101.2256 30.33295,-182.7177 68.01111,-182.7177 z" />
        <circle
           style="fill:none;stroke:#000000;stroke-width:2.8717"
           id="path384-7-5"
           cx="500"
           cy="2709.0483"
           r="103.56415" />
      </g>
      <g
         id="g994-3-5-6"
         transform="translate(-8.7335575,-1450.8796)">
        <path
           id="rect1421-6-3-2"
           style="display:inline;stroke-width:7.69335"
           d="m 174.31601,2493.4853 h 651.36798 c 37.67815,0 68.01111,81.4921 68.01111,182.7177 v 65.6906 c 0,101.2256 -30.33296,182.7176 -68.01111,182.7176 H 174.31601 c -37.67816,0 -68.01111,-81.492 -68.01111,-182.7176 v -65.6906 c 0,-101.2256 30.33295,-182.7177 68.01111,-182.7177 z" />
        <circle
           style="fill:none;stroke:#000000;stroke-width:2.8717"
           id="path384-7-5-9"
           cx="500"
           cy="2709.0483"
           r="103.56415" />
      </g>
      <g
         id="g994-3-5-6-1"
         transform="translate(-8.7335575,-1934.2163)">
        <path
           id="rect1421-6-3-2-2"
           style="display:inline;stroke-width:7.69335"
           d="m 174.31601,2493.4853 h 651.36798 c 37.67815,0 68.01111,81.4921 68.01111,182.7177 v 65.6906 c 0,101.2256 -30.33296,182.7176 -68.01111,182.7176 H 174.31601 c -37.67816,0 -68.01111,-81.492 -68.01111,-182.7176 v -65.6906 c 0,-101.2256 30.33295,-182.7177 68.01111,-182.7177 z" />
        <circle
           style="fill:none;stroke:#000000;stroke-width:2.8717"
           id="path384-7-5-9-7"
           cx="500"
           cy="2709.0483"
           r="103.56415" />
      </g>
      <g
         id="g994-3-5-6-1-0"
         transform="translate(-8.7335575,-2420.707)">
        <path
           id="rect1421-6-3-2-2-9"
           style="display:inline;stroke-width:7.69335"
           d="m 174.31601,2493.4853 h 651.36798 c 37.67815,0 68.01111,81.4921 68.01111,182.7177 v 65.6906 c 0,101.2256 -30.33296,182.7176 -68.01111,182.7176 H 174.31601 c -37.67816,0 -68.01111,-81.492 -68.01111,-182.7176 v -65.6906 c 0,-101.2256 30.33295,-182.7177 68.01111,-182.7177 z" />
        <circle
           style="fill:none;stroke:#000000;stroke-width:2.8717"
           id="path384-7-5-9-7-3"
           cx="500"
           cy="2709.0483"
           r="103.56415" />
      </g>
    </g>
  </g>
  <metadata
     id="metadata1458">
    <rdf:RDF>
      <cc:Work
         rdf:about="">
        <dc:title>FreeCAD SVG Export</dc:title>
      </cc:Work>
    </rdf:RDF>
  </metadata>
</svg>
